<svg width="720" height="73" viewBox="0 0 720 73" fill="none" xmlns="http://www.w3.org/2000/svg">
<g clip-path="url(#clip0_2_19)">
<path d="M185.196 37.1975V36.7325C189.166 34.4077 192.202 29.758 192.202 24.6433C192.202 14.1816 184.963 6.2771 171.417 6.2771H141.758V18.3663H147.363V59.9809H141.758V72.0701H173.286C184.496 72.0701 194.304 64.6306 194.304 51.844C194.304 44.4045 189.867 39.5223 185.196 37.1975ZM160.908 18.8312H171.184C175.154 18.8312 178.19 21.621 178.19 25.5733C178.19 29.5255 175.388 32.3153 171.184 32.3153H160.908V18.8312ZM171.417 59.2835H160.908V43.4746H171.184C176.088 43.4746 179.825 46.4968 179.825 51.379C180.058 56.0287 176.322 59.2835 171.417 59.2835Z" fill="#242424"/>
<path d="M251.755 58.3535V22.3185H237.976V26.9682H237.042C234.239 23.4809 229.569 21.1561 223.263 21.1561C210.652 21.1561 200.376 32.0828 200.376 46.9618C200.376 61.8408 210.652 73 223.263 73C230.503 73 234.473 70.2102 237.042 66.4905H237.976C237.976 69.2803 240.311 71.8376 243.347 71.8376H255.725V60.4459H253.857C252.689 60.4459 251.755 59.5159 251.755 58.3535ZM226.299 59.9809C219.76 59.9809 214.389 55.0987 214.389 47.1943C214.389 39.2898 219.76 34.4077 226.299 34.4077C232.838 34.4077 238.209 39.0573 238.209 47.1943C238.209 54.1688 233.539 59.9809 226.299 59.9809Z" fill="#242424"/>
<path d="M319.247 21.1561C312.475 21.1561 308.038 24.6433 305.469 28.3631H304.535C302.199 24.1784 297.995 21.1561 291.456 21.1561C285.618 21.1561 281.881 24.1784 280.247 26.9682H279.312V22.3185H265.534V71.6051H279.312V43.0096C279.312 37.8949 282.815 34.4077 287.019 34.4077C291.223 34.4077 294.726 37.1975 294.726 41.8471V71.8376H308.271V43.0096C308.271 37.43 311.774 34.4077 315.978 34.4077C320.182 34.4077 323.451 37.43 323.451 43.0096V71.6051H337.23V38.3599C336.996 28.828 329.523 21.1561 319.247 21.1561Z" fill="#242424"/>
<path d="M376.231 21.156C368.524 21.156 364.554 24.6433 362.219 27.4331H361.285V1.3949H347.506V71.6051H361.285V66.9554H362.219C364.554 69.9777 368.524 72.7675 375.53 72.7675C388.375 72.7675 398.651 61.6083 398.651 46.7293C398.651 32.5478 389.076 21.156 376.231 21.156ZM372.728 59.9809C365.488 59.9809 360.817 53.9363 360.817 46.9618C360.817 38.8248 366.189 33.9427 372.728 33.9427C379.501 33.9427 384.638 39.0573 384.638 46.9618C384.638 54.8662 379.267 59.9809 372.728 59.9809Z" fill="#242424"/>
<path d="M431.58 21.1561C416.166 21.1561 405.19 32.3153 405.19 47.1943C405.19 61.8408 416.166 73 431.58 73C446.993 73 457.969 61.8408 457.969 47.1943C457.969 32.5478 447.227 21.1561 431.58 21.1561ZM431.58 59.9809C424.34 59.9809 418.968 54.4013 418.968 47.1943C418.968 39.7548 424.106 34.1752 431.58 34.1752C439.053 34.1752 443.957 39.7548 443.957 47.1943C444.191 54.4013 439.053 59.9809 431.58 59.9809Z" fill="#242424"/>
<path d="M488.797 21.1561C473.383 21.1561 462.407 32.3153 462.407 47.1943C462.407 61.8408 473.383 73 488.797 73C504.21 73 515.187 61.8408 515.187 47.1943C515.187 32.5478 504.21 21.1561 488.797 21.1561ZM488.797 59.9809C481.557 59.9809 476.186 54.4013 476.186 47.1943C476.186 39.7548 481.323 34.1752 488.797 34.1752C496.27 34.1752 501.174 39.7548 501.174 47.1943C501.174 54.4013 496.036 59.9809 488.797 59.9809Z" fill="#242424"/>
<path d="M556.756 49.5191H574.272C571.002 56.7261 564.463 59.7484 556.523 59.7484C544.612 59.7484 536.672 50.6815 536.672 39.0573C536.672 27.4331 544.379 18.5987 556.289 18.5987C563.763 18.5987 570.535 22.5509 573.571 29.5255H588.518C584.08 13.949 571.469 5.11462 556.289 5.11462C536.205 5.11462 522.193 19.9936 522.193 39.0573C522.193 58.3535 536.205 73 556.289 73.2325C571.469 73.2325 589.218 63.4681 589.685 37.8949H556.756V49.5191Z" fill="#8FC646"/>
<path d="M613.74 29.0605H612.806V22.3185H599.26V71.6051H612.806V48.3567C612.806 39.0573 617.71 34.4077 625.183 34.4077H630.321V21.1561H626.351C620.746 21.1561 615.842 24.6433 613.74 29.0605Z" fill="#8FC646"/>
<path d="M652.274 0C647.603 0 644.1 3.48726 644.1 7.90446C644.1 12.3217 647.603 15.8089 652.274 15.8089C656.944 15.8089 660.448 12.3217 660.448 7.90446C660.214 3.48726 656.711 0 652.274 0Z" fill="#8FC646"/>
<path d="M636.86 34.4077H645.034V71.8376H658.813V22.3185H636.86V34.4077Z" fill="#8FC646"/>
<path d="M706.221 1.3949V27.4331H705.287C702.952 24.6433 698.748 21.156 691.275 21.156C678.43 21.156 668.855 32.5478 668.855 46.9618C668.855 61.8408 679.131 73 691.975 73C698.981 73 702.952 70.2102 705.287 67.1879H706.221V71.8376H720V1.3949H706.221ZM694.778 59.9809C688.239 59.9809 682.867 54.8662 682.867 46.9618C682.867 39.0573 688.005 33.9427 694.778 33.9427C701.317 33.9427 706.688 38.8248 706.688 46.9618C706.455 54.1688 701.784 59.9809 694.778 59.9809Z" fill="#8FC646"/>
<path d="M32.4619 43.4745C30.1265 47.8917 28.9588 52.0765 28.7253 56.4937H1.86831C0.700616 56.4937 0 57.1911 0 58.121C0 59.051 0.700616 59.9809 1.86831 59.9809H28.9588C29.1923 64.3981 30.36 68.5828 32.6954 73C48.5761 69.9777 64.2232 69.9777 80.1038 73C85.2416 63.2357 85.2416 53.4714 80.1038 43.707C63.9896 46.4968 48.3425 46.4968 32.4619 43.4745Z" fill="#8FC646"/>
<path d="M83.1398 19.0637H56.0493C55.8157 14.6465 54.648 10.4618 52.3126 6.04456C36.6655 9.29933 20.7849 9.29933 5.13781 6.27704C-3.92992e-05 16.0414 -3.92992e-05 25.8057 5.13781 35.57C21.0185 32.5477 36.6655 32.5477 52.5462 35.57C54.8816 31.1528 56.0493 26.9681 56.2828 22.5509H83.3733C84.3075 22.5509 85.2416 21.8535 85.2416 20.6911C85.2416 19.5286 84.3075 19.0637 83.1398 19.0637Z" fill="#8FC646"/>
</g>
<defs>
<clipPath id="clip0_2_19">
<rect width="720" height="73" fill="white"/>
</clipPath>
</defs>
</svg>
