<svg width="720" height="74" viewBox="0 0 720 74" fill="none" xmlns="http://www.w3.org/2000/svg">
<g clip-path="url(#clip0_2_35)">
<path d="M185.196 37.707V37.2356C189.166 34.879 192.202 30.1656 192.202 24.9809C192.202 14.3758 184.963 6.36304 171.417 6.36304H141.758V18.6178H147.363V60.8025H141.758V73.0573H173.286C184.496 73.0573 194.304 65.5159 194.304 52.5541C194.304 45.0127 189.867 40.0637 185.196 37.707ZM160.908 19.0892H171.184C175.154 19.0892 178.19 21.9172 178.19 25.9235C178.19 29.9299 175.388 32.7579 171.184 32.7579H160.908V19.0892ZM171.417 60.0955H160.908V44.07H171.184C176.088 44.07 179.825 47.1337 179.825 52.0828C180.058 56.7962 176.322 60.0955 171.417 60.0955Z" fill="#DEE2E6"/>
<path d="M251.755 59.1528V22.6241H237.976V27.3375H237.042C234.239 23.8025 229.569 21.4458 223.263 21.4458C210.652 21.4458 200.376 32.5222 200.376 47.605C200.376 62.6878 210.652 73.9999 223.263 73.9999C230.503 73.9999 234.473 71.1719 237.042 67.4012H237.976C237.976 70.2292 240.311 72.8216 243.347 72.8216H255.725V61.2738H253.857C252.689 61.2738 251.755 60.3311 251.755 59.1528ZM226.299 60.8025C219.76 60.8025 214.389 55.8534 214.389 47.8407C214.389 39.828 219.76 34.8789 226.299 34.8789C232.838 34.8789 238.209 39.5923 238.209 47.8407C238.209 54.9108 233.539 60.8025 226.299 60.8025Z" fill="#DEE2E6"/>
<path d="M319.247 21.4458C312.475 21.4458 308.038 24.9808 305.469 28.7515H304.535C302.199 24.5095 297.995 21.4458 291.456 21.4458C285.618 21.4458 281.881 24.5095 280.247 27.3375H279.312V22.6241H265.534V72.5859H279.312V43.5987C279.312 38.414 282.815 34.8789 287.019 34.8789C291.223 34.8789 294.726 37.7069 294.726 42.4203V72.8216H308.271V43.5987C308.271 37.9426 311.774 34.8789 315.978 34.8789C320.182 34.8789 323.451 37.9426 323.451 43.5987V72.5859H337.23V38.8853C336.996 29.2229 329.523 21.4458 319.247 21.4458Z" fill="#DEE2E6"/>
<path d="M376.231 21.4459C368.524 21.4459 364.554 24.9809 362.219 27.809H361.285V1.41406H347.506V72.586H361.285V67.8727H362.219C364.554 70.9364 368.524 73.7644 375.53 73.7644C388.375 73.7644 398.651 62.4523 398.651 47.3695C398.651 32.9937 389.076 21.4459 376.231 21.4459ZM372.728 60.8026C365.488 60.8026 360.817 54.6752 360.817 47.6051C360.817 39.3567 366.189 34.4077 372.728 34.4077C379.501 34.4077 384.638 39.5924 384.638 47.6051C384.638 55.6179 379.267 60.8026 372.728 60.8026Z" fill="#DEE2E6"/>
<path d="M431.58 21.4458C416.166 21.4458 405.19 32.7579 405.19 47.8407C405.19 62.6878 416.166 73.9999 431.58 73.9999C446.993 73.9999 457.969 62.6878 457.969 47.8407C457.969 32.9936 447.227 21.4458 431.58 21.4458ZM431.58 60.8025C424.34 60.8025 418.968 55.1464 418.968 47.8407C418.968 40.2993 424.106 34.6433 431.58 34.6433C439.053 34.6433 443.957 40.2993 443.957 47.8407C444.191 55.1464 439.053 60.8025 431.58 60.8025Z" fill="#DEE2E6"/>
<path d="M488.797 21.4458C473.383 21.4458 462.407 32.7579 462.407 47.8407C462.407 62.6878 473.383 73.9999 488.797 73.9999C504.21 73.9999 515.187 62.6878 515.187 47.8407C515.187 32.9936 504.21 21.4458 488.797 21.4458ZM488.797 60.8025C481.557 60.8025 476.186 55.1464 476.186 47.8407C476.186 40.2993 481.323 34.6433 488.797 34.6433C496.27 34.6433 501.174 40.2993 501.174 47.8407C501.174 55.1464 496.036 60.8025 488.797 60.8025Z" fill="#DEE2E6"/>
<path d="M556.756 50.1974H574.272C571.002 57.5032 564.463 60.5669 556.523 60.5669C544.612 60.5669 536.672 51.3758 536.672 39.5923C536.672 27.8089 544.379 18.8535 556.289 18.8535C563.763 18.8535 570.535 22.8599 573.571 29.9299H588.518C584.08 14.1401 571.469 5.18469 556.289 5.18469C536.205 5.18469 522.193 20.2675 522.193 39.5923C522.193 59.1528 536.205 74 556.289 74.2356C571.469 74.2356 589.218 64.3376 589.685 38.414H556.756V50.1974Z" fill="#8FC646"/>
<path d="M613.74 29.4585H612.806V22.6241H599.26V72.5859H612.806V49.019C612.806 39.5923 617.71 34.8789 625.183 34.8789H630.321V21.4458H626.351C620.746 21.4458 615.842 24.9808 613.74 29.4585Z" fill="#8FC646"/>
<path d="M652.274 0C647.603 0 644.1 3.53503 644.1 8.01274C644.1 12.4904 647.603 16.0255 652.274 16.0255C656.944 16.0255 660.448 12.4904 660.448 8.01274C660.214 3.53503 656.711 0 652.274 0Z" fill="#8FC646"/>
<path d="M636.86 34.879H645.034V72.8217H658.813V22.6243H636.86V34.879Z" fill="#8FC646"/>
<path d="M706.221 1.41406V27.809H705.287C702.952 24.9809 698.748 21.4459 691.275 21.4459C678.43 21.4459 668.855 32.9937 668.855 47.6051C668.855 62.688 679.131 74.0001 691.975 74.0001C698.981 74.0001 702.952 71.172 705.287 68.1083H706.221V72.8217H720V1.41406H706.221ZM694.778 60.8026C688.239 60.8026 682.867 55.6179 682.867 47.6051C682.867 39.5924 688.005 34.4077 694.778 34.4077C701.317 34.4077 706.688 39.3567 706.688 47.6051C706.455 54.9109 701.784 60.8026 694.778 60.8026Z" fill="#8FC646"/>
<path d="M32.4619 44.0701C30.1265 48.5478 28.9588 52.7898 28.7253 57.2675H1.86831C0.700616 57.2675 0 57.9745 0 58.9172C0 59.8599 0.700616 60.8025 1.86831 60.8025H28.9588C29.1923 65.2803 30.36 69.5223 32.6954 74C48.5761 70.9363 64.2232 70.9363 80.1038 74C85.2416 64.1019 85.2416 54.2038 80.1038 44.3057C63.9896 47.1338 48.3425 47.1338 32.4619 44.0701Z" fill="#8FC646"/>
<path d="M83.1398 19.3249H56.0493C55.8157 14.8472 54.648 10.6051 52.3126 6.12744C36.6655 9.4268 20.7849 9.4268 5.13781 6.36311C-3.92992e-05 16.2612 -3.92992e-05 26.1593 5.13781 36.0574C21.0185 32.9937 36.6655 32.9937 52.5462 36.0574C54.8816 31.5797 56.0493 27.3376 56.2828 22.8599H83.3733C84.3075 22.8599 85.2416 22.1529 85.2416 20.9746C85.2416 19.7962 84.3075 19.3249 83.1398 19.3249Z" fill="#8FC646"/>
</g>
<defs>
<clipPath id="clip0_2_35">
<rect width="720" height="74" fill="white"/>
</clipPath>
</defs>
</svg>
